<svg version="1.2" xmlns="http://www.w3.org/2000/svg" viewBox="0 0 1302 1014" width="1302" height="1014">
	<title>Ashfaq Ali Zardari</title>
	<defs>
		<radialGradient id="g1" cx="634" cy="441.2" r="217" gradientUnits="userSpaceOnUse">
			<stop offset="0" stop-color="#8c36c9"/>
			<stop offset=".285" stop-color="#8c36c9"/>
			<stop offset="1" stop-color="#57277a"/>
		</radialGradient>
		<linearGradient id="g2" x1="840.7" y1="834.4" x2="840.7" y2="453.7" gradientUnits="userSpaceOnUse">
			<stop offset="0" stop-color="#a71a70"/>
			<stop offset="1" stop-color="#d34a95"/>
		</linearGradient>
		<linearGradient id="g3" x1="667.4" y1="878" x2="600.6" y2="977" gradientUnits="userSpaceOnUse">
			<stop offset="0" stop-color="#66308d"/>
			<stop offset=".285" stop-color="#5f2287"/>
			<stop offset=".459" stop-color="#5a287e"/>
			<stop offset="1" stop-color="#7104a3"/>
		</linearGradient>
		<linearGradient id="g4" x1="350.3" y1="834.4" x2="350.3" y2="453.7" gradientUnits="userSpaceOnUse">
			<stop offset="0" stop-color="#a3156c"/>
			<stop offset="1" stop-color="#d9519b"/>
		</linearGradient>
		<linearGradient id="g5" x1="362.6" y1="447.5" x2="362.6" y2="48" gradientUnits="userSpaceOnUse">
			<stop offset="0" stop-color="#3eb5f1"/>
			<stop offset="1" stop-color="#488dcd"/>
		</linearGradient>
		<radialGradient id="g6" cx="928.2" cy="247.7" r="199.7" gradientUnits="userSpaceOnUse">
			<stop offset="0" stop-color="#3eb5f1"/>
			<stop offset="1" stop-color="#488dcd"/>
		</radialGradient>
	</defs>
	<style>
		tspan { white-space:pre } 
		.s0 { fill: url(#g1) } 
		.s1 { fill: url(#g2) } 
		.s2 { fill: url(#g3) } 
		.s3 { fill: url(#g4) } 
		.s4 { fill: url(#g5) } 
		.s5 { fill: url(#g6) } 
		.t6 { font-size: 167px;text-transform: uppercase;fill: #ffffff;font-weight: bold;font-style: italic;font-family: "Calibri" } 
	</style>
	<path id="Shape 1" fill-rule="evenodd" class="s0" d="m850.9 441.2c0-119.7-97.3-217-216.9-217-119.6 0-216.8 97.3-216.8 217 0 119.6 97.2 217 216.8 217 119.6 0 216.9-97.4 216.9-217zm-59.1 100.4c-10.5-3.9-22-7.4-34.2-10.4 7.2-24.2 11.5-50.8 12.5-78.9h50.6c-1.9 32.7-12.2 63.2-28.9 89.3zm-2.2-204.4c18.1 26.8 29.1 58.7 31.1 92.9h-50.6c-1-29.7-5.8-57.7-13.8-83 11.9-2.9 23.1-6.2 33.3-9.9zm-14.5-18.8c-8.2 2.7-17.2 5.1-26.5 7.4-8.1-19.6-18.2-37-29.9-51.5 21.6 11 40.7 26 56.4 44.1zm-82.5 111.7c-0.3-21.3-1.5-46.5-4.2-71.9 16.3-1.5 31.8-3.7 46.5-6.4 7.5 23.6 12.1 50.1 13 78.3zm55.3 22.2c-0.9 26.5-5.1 51.6-11.8 74.2-14.9-2.9-30.7-5.2-47.3-6.7 2.4-23.9 3.6-47.4 3.8-67.5zm-21-121.9c-12.9 2.4-26.7 4.3-41.2 5.6-4.2-29.8-10.5-57.9-19.6-78.1 24.8 12.2 46.1 38.1 60.8 72.5zm-129.3 99.7c0.3-26.2 1.7-49.8 3.9-70.4 10.6 0.6 21.4 1 32.5 1 11.1 0 21.9-0.4 32.5-1 2.2 20.6 3.6 44.2 4 70.4zm72.8 22.2c-0.3 24.4-1.5 46.4-3.4 65.9-10.8-0.6-21.8-1-33-1-11.3 0-22.2 0.4-33 1-1.9-19.5-3.1-41.5-3.4-65.9zm-41.9-198.2c1.8-0.1 3.6-0.3 5.4-0.3 1.8 0 3.6 0.2 5.4 0.3 7.6 9.7 17.8 37.7 24.4 83.5-9.7 0.5-19.6 0.9-29.8 0.9-10.2 0-20.1-0.4-29.7-0.9 6.6-45.8 16.7-73.8 24.3-83.5zm-26.7 3.8c-9.1 20.1-15.4 48.3-19.5 78.1-14.6-1.3-28.3-3.2-41.3-5.6 14.7-34.4 36-60.3 60.8-72.5zm-26.5 172.2h-55.3c1-28.2 5.5-54.7 13-78.3 14.7 2.7 30.2 4.9 46.5 6.4-2.6 25.4-3.9 50.6-4.2 71.9zm3.8 89.7c-16.6 1.5-32.4 3.8-47.3 6.6-6.7-22.5-10.9-47.6-11.8-74.1h55.3c0.3 20.1 1.4 43.6 3.8 67.5zm-29.9-245.5c-11.6 14.5-21.7 31.8-29.9 51.5-9.3-2.2-18.3-4.7-26.5-7.4 15.8-18.1 34.9-33.1 56.4-44.1zm-70.9 62.9c10.3 3.7 21.4 7 33.4 9.9-8 25.3-12.9 53.3-13.8 83h-50.7c2.1-34.2 13-66.1 31.1-92.9zm-2.2 204.4c-16.7-26.1-26.9-56.6-28.9-89.3h50.7c0.8 28.1 5.3 54.7 12.5 78.9-12.3 3-23.8 6.5-34.3 10.4zm13.6 19c8.7-3 18.1-5.6 28.1-8.1 8.3 21.3 19 40.1 31.4 55.6-22.9-11.7-43.2-27.9-59.5-47.5zm49.5-12.7q19.9-3.8 42.4-6c4.1 31.5 10.7 61.4 20.2 82.6-25.8-12.7-47.9-40.1-62.6-76.6zm100.1 80.4c-1.8 0.1-3.6 0.3-5.4 0.3-1.8 0-3.6-0.2-5.4-0.3-7.8-10-18.4-39.5-25-88 9.9-0.5 20-0.8 30.4-0.8 10.5 0 20.5 0.3 30.5 0.8-6.7 48.5-17.2 78-25.1 88zm26.7-3.8c9.6-21.2 16.1-51.1 20.2-82.6 15 1.5 29.2 3.5 42.4 6-14.7 36.5-36.8 63.9-62.6 76.6zm52.6-16.4c12.5-15.5 23.1-34.3 31.5-55.6 9.9 2.5 19.4 5.1 28 8.1-16.3 19.6-36.6 35.8-59.5 47.5z"/>
	<path id="Shape 1 copy 4" class="s1" d="m981.3 453.7h-63.4c-6.4 144.9-122.6 261.3-267.4 267.6v69.9c12.5-0.5 25-1.5 37.4-3.4l17.3 46.6 82.3-23.4-9.9-49.5c25-11.3 49-25.5 71.2-43l39.1 33.4 60.5-60.5-34.3-40.3c16.5-22.3 30.2-46.1 40.6-70.9l52.8 10.6 23.3-82.3-51.9-19.4c1.4-11.8 2.1-23.6 2.4-35.4z"/>
	<path id="Rounded Rectangle 1 copy" class="s2" d="m171 878h926c11 0 20 9 20 20v59c0 11-9 20-20 20h-926c-11 0-20-9-20-20v-59c0-11 9-20 20-20z"/>
	<path id="Shape 1 copy 3" class="s3" d="m358.1 453.7h-67.3c0.3 12.3 1 24.6 2.5 36.8l-48.1 18 8.5 30h-56.8c-3-10.8-12.8-18.7-24.6-18.7-14.1 0-25.6 11.4-25.6 25.6 0 14.2 11.5 25.6 25.6 25.6 11.8 0 21.6-7.9 24.6-18.7h60.7l10.9 38.5 49.2-9.9c5.9 14.1 12.9 27.7 20.9 41h-213.4c-3-10.8-12.8-18.8-24.6-18.8-14.1 0-25.6 11.5-25.6 25.7 0 14.1 11.5 25.6 25.6 25.6 11.8 0 21.6-8 24.6-18.8h221.9q6 9.2 12.7 18l-32.2 37.8 60.5 60.5 37.2-31.8c22.8 17.6 47.2 31.9 72.8 43.1l-9.6 47.8 82.3 23.4 17.1-46c12.5 1.7 25.1 2.6 37.6 2.9v-70c-144.8-6.3-261-122.7-267.4-267.6z"/>
	<path id="Shape 1 copy 2" class="s4" d="m125.3 447.5c11.8 0 21.6-8 24.6-18.8h141.2 46.1 20.9c6.4-144.9 122.6-261.3 267.4-267.6v-60.6c-11.4 0.3-22.9 1-34.2 2.5l-20.5-55-82.2 23.4 11.3 56.5c-24 10.2-47 23.5-68.7 39.5l-43.1-36.9-60.5 60.5 35.9 42.1c-17 21.7-30.8 44.9-41.9 69.2l-53.1-10.7-23.3 82.4 49.4 18.4c-1.1 7.5-1.9 15-2.5 22.6h-142.2c-3-10.8-12.8-18.8-24.6-18.8-14.1 0-25.6 11.5-25.6 25.6 0 14.2 11.5 25.7 25.6 25.7z"/>
	<path id="Shape 1 copy" class="s5" d="m1180.5 235.7c-11.7 0-21.6 7.9-24.6 18.7l-232.9-1.1c-4-6-8.2-11.9-12.6-17.6l38-44.7-60.5-60.5-45 38.5c-21.2-15.9-43.6-29.1-67.1-39.4l11.6-58.2-82.2-23.4-20.6 55.5c-11.4-1.6-22.8-2.4-34.2-2.9l0.1 60.5c144.8 6.3 261 122.6 267.4 267.6h63q0 0 0 0h143.6c3 10.8 12.8 18.8 24.6 18.8 14.1 0 25.6-11.5 25.6-25.6 0-14.2-11.5-25.7-25.6-25.7-11.8 0-21.6 8-24.6 18.8h-144.6c-0.5-7.1-1.3-14.2-2.3-21.3l53.3-19.7-10.8-37.9 55.5 0.2c2.9 10.8 12.7 18.9 24.5 18.9 14.1 0.1 25.6-11.3 25.7-25.5 0-14.2-11.4-25.7-25.5-25.7-11.8-0.1-21.6 7.8-24.7 18.6l-59.4-0.3-8.7-30.7-56.8 11.4c-5.6-12.3-11.9-24.3-19-36l224.1 1.1c3 10.8 12.7 18.8 24.5 18.9 14.1 0 25.6-11.4 25.7-25.5 0.1-14.2-11.3-25.7-25.5-25.8z"/>
	<text id="AShfaq Ali Zardari Store" style="transform: matrix(.464,0,0,.52,633.414,955.103)" >
		<tspan x="-1271.2" y="0" class="t6">A</tspan><tspan  y="0" class="t6">SHFAQ ALI ZARDARI STORE
</tspan>
	</text>
</svg>